<svg id="Layer_1" data-name="Layer 1" xmlns="http://www.w3.org/2000/svg" viewBox="0 0 156.36 159">
  <defs>
    <style>
      .hand {
        fill: #000;
      }
			.ellipse {
        fill: #fff;
      }
    </style>
  </defs>
  <ellipse class="ellipse" cx="78.18" cy="79.5" rx="78.18" ry="79.5"/>
  <g>
    <path class="hand" d="M147.87,591.6c0,3.53-2.46,6.4-5.49,6.4s-5.47-2.86-5.47-6.4,2.46-6.37,5.47-6.37,5.49,2.86,5.49,6.37h0Zm0,0" transform="translate(-39 -544)"/>
    <path class="hand" d="M133.26,578.86c0,3.53-2.44,6.37-5.47,6.37s-5.47-2.84-5.47-6.37,2.46-6.37,5.47-6.37,5.47,2.84,5.47,6.37h0Zm0,0" transform="translate(-39 -544)"/>
    <path class="hand" d="M118.66,574.61c0,3.53-2.44,6.37-5.47,6.37s-5.47-2.84-5.47-6.37,2.44-6.37,5.47-6.37,5.47,2.86,5.47,6.37h0Zm0,0" transform="translate(-39 -544)"/>
    <path class="hand" d="M104.07,583.12c0,3.51-2.46,6.37-5.47,6.37s-5.47-2.86-5.47-6.37,2.44-6.37,5.47-6.37,5.47,2.84,5.47,6.37h0Zm0,0" transform="translate(-39 -544)"/>
    <path class="hand" d="M136.91,591.6v27.65a1.85,1.85,0,1,1-3.65,0V578.86H122.32V615a1.85,1.85,0,1,1-3.65,0V574.61H107.72V615a1.85,1.85,0,1,1-3.65,0V583.12H93.13v53.14l-7.4-11.79c-2.19-3.92-6.47-5.25-9.6-3s-3.89,7.32-1.73,11.25c0,0,11.92,21,17,30s13.31,16,28.71,16c25.48,0,27.76-22.92,27.76-29.77V591.6h-11Zm0,0" transform="translate(-39 -544)"/>
  </g>
</svg>
